<svg xmlns="http://www.w3.org/2000/svg" style="display: none;">
    <symbol id="icon-home" viewBox="0 0 24 24" fill="none" stroke-width="1.5" stroke-linecap="round" stroke-linejoin="round">
        <g stroke="rgba(255,255,255,0.5)" stroke-dasharray="2 2">
            <path d="M3 9l9-7 9 7v11a2 2 0 0 1-2 2H5a2 2 0 0 1-2-2z"/>
        </g>
        <g stroke="var(--accent-cyan)">
            <polyline points="9 22 9 12 15 12 15 22"/>
        </g>
    </symbol>

    <symbol id="icon-candidats" viewBox="0 0 24 24" fill="none" stroke-width="1.5" stroke-linecap="round" stroke-linejoin="round">
        <g stroke="rgba(255,255,255,0.5)" stroke-dasharray="2 2">
            <circle cx="10" cy="7" r="4"/>
            <path d="M10.3 15H7a4 4 0 0 0-4 4v2"/>
        </g>
        <g stroke="var(--accent-cyan)">
            <circle cx="17" cy="17" r="3"/>
            <path d="m21 21-1.9-1.9"/>
        </g>
    </symbol>

    <symbol id="icon-initiatives" viewBox="0 0 24 24" fill="none" stroke-width="1.5" stroke-linecap="round" stroke-linejoin="round">
        <g stroke="rgba(255,255,255,0.5)" stroke-dasharray="2 2">
            <path d="M12 2v2"/>
            <path d="M15.726 21.01A2 2 0 0 1 14 22H4a2 2 0 0 1-2-2V10a2 2 0 0 1 2-2"/>
            <path d="M18 2v2"/>
            <path d="M2 13h2"/>
            <path d="M8 8h14"/>
        </g>
        <g stroke="var(--accent-cyan)">
            <rect x="8" y="3" width="14" height="14" rx="2"/>
        </g>
    </symbol>

    <symbol id="icon-analyse" viewBox="0 0 24 24" fill="none" stroke-width="1.5" stroke-linecap="round" stroke-linejoin="round">
        <g stroke="var(--accent-cyan)" stroke-dasharray="2 2">
            <path d="M5 3a2 2 0 0 0-2 2"/>
            <path d="M9 3h1"/><path d="M14 3h1"/>
            <path d="M19 3a2 2 0 0 1 2 2"/>
            <path d="M21 9v1"/><path d="M21 14v1"/>
            <path d="M21 19a2 2 0 0 1-2 2"/>
            <path d="M14 21h1"/><path d="M9 21h1"/>
            <path d="M5 21a2 2 0 0 1-2-2"/>
            <path d="M3 14v1"/><path d="M3 9v1"/>
        </g>
        <g stroke="rgba(255,255,255,0.5)">
            <path d="M8 7v7"/><path d="M12 7v4"/><path d="M16 7v9"/>
        </g>
    </symbol>

    <symbol id="icon-journal" viewBox="0 0 24 24" fill="none" stroke-width="1.5" stroke-linecap="round" stroke-linejoin="round">
        <g stroke="rgba(255,255,255,0.5)" stroke-dasharray="2 2">
            <path d="M8 2v4"/><path d="M12 2v4"/><path d="M16 2v4"/>
            <path d="M16 4h2a2 2 0 0 1 2 2v2"/><path d="M20 12v2"/>
            <path d="M20 18v2a2 2 0 0 1-2 2h-1"/><path d="M13 22h-2"/>
            <path d="M7 22H6a2 2 0 0 1-2-2v-2"/><path d="M4 14v-2"/><path d="M4 8V6a2 2 0 0 1 2-2h2"/>
        </g>
        <g stroke="var(--accent-cyan)">
            <path d="M8 10h6"/><path d="M8 14h8"/><path d="M8 18h5"/>
        </g>
    </symbol>

    <symbol id="icon-simulations" viewBox="0 0 24 24" fill="none" stroke-width="1.5" stroke-linecap="round" stroke-linejoin="round">
        <g stroke="rgba(255,255,255,0.5)" stroke-dasharray="2 2">
            <path d="M12 6h5a2 2 0 0 1 2 2v7"/>
            <path d="m15 9-3-3 3-3"/>
            <path d="M12 18H7a2 2 0 0 1-2-2V9"/>
            <path d="m9 15 3 3-3 3"/>
        </g>
        <g stroke="var(--accent-cyan)">
            <circle cx="5" cy="6" r="3"/>
            <circle cx="19" cy="18" r="3"/>
        </g>
    </symbol>

    <symbol id="icon-config" viewBox="0 0 24 24" fill="none" stroke-width="1.5" stroke-linecap="round" stroke-linejoin="round">
        <g stroke="rgba(255,255,255,0.5)" stroke-dasharray="2 2">
            <path d="M4.5 10H4a2 2 0 0 1-2-2V4a2 2 0 0 1 2-2h16a2 2 0 0 1 2 2v4a2 2 0 0 1-2 2h-.5"/>
            <path d="M4.5 14H4a2 2 0 0 0-2 2v4a2 2 0 0 0 2 2h16a2 2 0 0 0 2-2v-4a2 2 0 0 0-2-2h-.5"/>
        </g>
        <g stroke="rgba(255,255,255,1)">
            <path d="M6 18h.01"/><path d="M6 6h.01"/>
        </g>
        <g stroke="var(--accent-cyan)">
            <path d="m10.852 14.772-.383.923"/>
            <path d="M13.148 14.772a3 3 0 1 0-2.296-5.544l-.383-.923"/>
            <path d="m13.148 9.228.383-.923"/>
            <path d="m13.53 15.696-.382-.924a3 3 0 1 1-2.296-5.544"/>
            <path d="m14.772 10.852.923-.383"/>
            <path d="m14.772 13.148.923.383"/>
            <path d="m9.228 10.852-.923-.383"/>
            <path d="m9.228 13.148-.923.383"/>
        </g>
    </symbol>
</svg>
